<?xml version="1.0" encoding="iso-8859-1"?>
<!-- Generator: Adobe Illustrator 19.0.0, SVG Export Plug-In . SVG Version: 6.00 Build 0)  -->
<svg xmlns="http://www.w3.org/2000/svg" xmlns:xlink="http://www.w3.org/1999/xlink" version="1.1" id="Capa_1" x="0px" y="0px" viewBox="0 0 463.48 463.48" style="enable-background:new 0 0 463.48 463.48;" xml:space="preserve" width="512px" height="512px">
<g>
	<g>
		<path d="M400.93,249.12c-28.789-25.272-60.351-47.199-94.08-65.36c-0.72-10.72-1.68-21.16-2.84-31.24    c-4.613,1.307-9.213,2.64-13.8,4c0.693,6.267,1.307,12.653,1.84,19.16c-9.04-4.693-18.373-9.267-28-13.72    c-4.613-2.16-9.213-4.253-13.8-6.28c11.56-4.44,22.88-8.44,33.84-12c0.585-0.266,1.186-0.493,1.8-0.68    c4.693-1.493,9.413-2.92,14.16-4.28c0.631-0.174,1.272-0.308,1.92-0.4c17.653-4.991,35.629-8.76,53.8-11.28    c38.96-5.32,66.4-1.52,73.04,12.76c6.64,14.28-7.92,37.76-37.04,64.16c-3.573,3.253-7.373,6.533-11.4,9.84    c3.893,2.88,7.72,5.813,11.48,8.8c3.253-2.667,6.373-5.333,9.36-8c33.92-30.76,50.12-60,40.52-80.6c-9.6-20.6-42.44-27-87.8-20.8    c-34.56,4.6-77.12,16.52-122.16,34.92c-14-5.72-27.76-10.8-41.12-15.28c-0.747,4.72-1.427,9.467-2.04,14.24    c8,2.667,16.2,5.64,24.6,8.92c-4.587,2.027-9.187,4.12-13.8,6.28c-4.427,2.08-8.813,4.173-13.16,6.28    c-0.507,5.493-0.933,10.987-1.28,16.48c6.667-3.36,13.48-6.667,20.44-9.92c8.853-4.133,17.653-8.027,26.4-11.68    c8.72,3.653,17.507,7.547,26.36,11.68c12.08,5.627,23.733,11.453,34.96,17.48c0.68,12.68,1.04,25.76,1.04,39.12    c0,61.36-7.64,116.8-20,156.76c-11.64,37.56-26.68,60.8-42.44,60.8s-30.8-23.24-42.44-60.8c-3.884-12.938-7.062-26.077-9.52-39.36    c-4.533,1.387-9.08,2.72-13.64,4c2.514,13.347,5.732,26.552,9.64,39.56c13.56,43.76,33.28,70.8,56,70.8    c22.72,0,42.4-27.08,56-70.8c12.72-41.32,20.64-98.2,20.64-160.92c0-10.667-0.213-21.027-0.64-31.08    c30.029,16.56,58.191,36.3,84,58.88c29.12,26.4,44,49.88,37.16,64c-6.68,14.24-34.08,18.04-73.04,12.72    c-13.469-1.934-26.823-4.605-40-8c-0.667,4.693-1.4,9.373-2.2,14.04c13.183,3.371,26.535,6.041,40,8c45.08,6.16,77.76,0,87.6-20.4    c0.137-0.259,0.257-0.526,0.36-0.8C450.81,308.6,434.65,279.48,400.93,249.12z" fill="#006DF0"/>
	</g>
</g>
<g>
	<g>
		<path d="M344.61,240.24c-7.12,4.747-14.573,9.467-22.36,14.16c-0.16,5.573-0.387,11.2-0.68,16.88    c12.52-7.28,24.28-14.72,35.24-22.2C352.81,246.067,348.744,243.12,344.61,240.24z" fill="#006DF0"/>
	</g>
</g>
<g>
	<g>
		<path d="M231.77,14.2c15.72,0,30.8,23.24,42.44,60.8c3.899,12.95,7.09,26.103,9.56,39.4c4.533-1.387,9.08-2.72,13.64-4    c-2.514-13.347-5.732-26.552-9.64-39.56C274.17,27.08,254.45,0,231.77,0s-42.4,27.08-56,70.8    c-12.72,41.36-20.64,98.24-20.64,160.96c0,10.667,0.213,21.027,0.64,31.08c-30.029-16.56-58.191-36.3-84-58.88    c-29.12-26.4-44-49.88-37.16-64c6.68-14.24,34.08-18.04,73.04-12.72c13.469,1.934,26.823,4.605,40,8    c0.667-4.693,1.4-9.373,2.2-14.04c-13.183-3.371-26.535-6.041-40-8c-45.08-6.16-77.76,0-87.6,20.4    c-0.137,0.259-0.257,0.526-0.36,0.8c-9.52,20.36,6.68,49.36,40.4,80.04c28.891,25.278,60.561,47.192,94.4,65.32    c0.72,10.68,1.64,21.08,2.8,31.12c4.613-1.333,9.213-2.667,13.8-4c-0.693-6.213-1.293-12.56-1.8-19.04    c9.04,4.693,18.373,9.267,28,13.72c4.613,2.16,9.213,4.253,13.8,6.28c-14.72,5.68-29.12,10.6-42.92,14.76h-0.24h-0.24l-6.4,1.88    h-0.64c-18.07,5.285-36.488,9.295-55.12,12c-38.96,5.32-66.4,1.52-73.04-12.76c-6.64-14.28,8-37.76,37.16-64    c3.573-3.253,7.373-6.533,11.4-9.84c-3.893-2.907-7.72-5.84-11.48-8.8c-3.253,2.667-6.373,5.333-9.36,8    c-34.04,30.68-50.24,60.08-40.68,80.6s42.44,27,87.8,20.8c34.64-4.76,77.2-16.68,122.24-35.08c14,5.72,27.76,10.8,41.12,15.24    c0.747-4.72,1.427-9.467,2.04-14.24c-8-2.667-16.2-5.64-24.6-8.92c4.587-2.027,9.2-4.12,13.84-6.28    c4.427-2.08,8.8-4.173,13.12-6.28c0.507-5.493,0.933-10.987,1.28-16.48c-6.667,3.36-13.467,6.667-20.4,9.92    c-8.88,4.133-17.68,8.027-26.4,11.68c-8.72-3.653-17.507-7.547-26.36-11.68c-12.133-5.733-23.813-11.56-35.04-17.48    c-0.68-12.68-1.04-25.76-1.04-39.12c0-61.36,7.64-116.8,20-156.76C200.97,37.44,216.05,14.2,231.77,14.2z" fill="#006DF0"/>
	</g>
</g>
<g>
	<g>
		<path d="M269.967,193.397c-21.254-21.141-55.622-21.05-76.763,0.203c-21.141,21.254-21.05,55.622,0.203,76.763    c10.192,10.138,23.988,15.819,38.363,15.797c14.42-0.004,28.243-5.764,38.4-16C291.312,248.906,291.221,214.538,269.967,193.397z     M231.739,271.792c-10.576-0.008-20.718-4.205-28.208-11.672c-7.536-7.513-11.768-17.719-11.76-28.36    c0.017-22.091,17.94-39.986,40.031-39.969s39.986,17.94,39.968,40.031S253.83,271.809,231.739,271.792z" fill="#006DF0"/>
	</g>
</g>
<g>
	<g>
		<path d="M106.77,214.44c3.973,3.013,8.04,5.96,12.2,8.84c7.12-4.747,14.573-9.467,22.36-14.16c0.16-5.573,0.387-11.2,0.68-16.88    C129.49,199.52,117.73,206.96,106.77,214.44z" fill="#006DF0"/>
	</g>
</g>
<g>
</g>
<g>
</g>
<g>
</g>
<g>
</g>
<g>
</g>
<g>
</g>
<g>
</g>
<g>
</g>
<g>
</g>
<g>
</g>
<g>
</g>
<g>
</g>
<g>
</g>
<g>
</g>
<g>
</g>
</svg>
